<svg xmlns="http://www.w3.org/2000/svg" xmlns:xlink="http://www.w3.org/1999/xlink" width="500" zoomAndPan="magnify" viewBox="0 0 375 374.999991" height="500" preserveAspectRatio="xMidYMid meet" version="1.0"><defs><g/><clipPath id="5617b2f902"><path d="M 55 15.257812 L 223 15.257812 L 223 219 L 55 219 Z M 55 15.257812 " clip-rule="nonzero"/></clipPath></defs><path fill="#51ade5" d="M 165.570312 263.769531 C 176.65625 262.3125 187.207031 252.417969 187.40625 252.234375 C 187.382812 252.308594 187.753906 253.015625 197.722656 259.828125 C 209.699219 268.015625 220.570312 255.792969 220.570312 255.792969 C 236.871094 265.933594 248.066406 261.140625 248.066406 261.140625 C 238.148438 267.574219 224.042969 263.320312 224.042969 263.320312 C 202.441406 275.484375 187.835938 260.925781 187.835938 260.925781 C 178.765625 265.25 165.570312 263.769531 165.570312 263.769531 Z M 84.824219 254.195312 C 91.71875 269.257812 101.621094 282.65625 113.757812 293.625 C 148.605469 288.042969 162.066406 272.191406 162.066406 272.191406 C 162.066406 272.191406 172.160156 289.738281 196.027344 289.574219 C 219.890625 289.40625 225.15625 272.191406 225.15625 272.191406 C 225.15625 272.191406 233.65625 283.316406 255.6875 288.714844 C 269.839844 292.1875 286.433594 283.394531 291.28125 276.695312 L 291.285156 276.6875 C 282.820312 274.605469 276.875 272.398438 276.875 272.398438 C 259.886719 282.605469 242.023438 275.183594 242.023438 275.183594 C 259.9375 278.398438 274.835938 256.050781 274.835938 256.050781 C 274.835938 256.050781 281.304688 264.292969 295.664062 270.496094 C 308.28125 251.410156 315.628906 228.53125 315.628906 203.9375 C 315.628906 176.785156 306.671875 151.71875 291.554688 131.539062 C 289.484375 133.003906 287.089844 134.960938 284.058594 138.226562 C 259.316406 164.917969 223.957031 191.230469 196.367188 208.476562 C 158.621094 232.066406 119.023438 247.367188 84.824219 254.195312 Z M 116.351562 295.898438 C 137.457031 313.917969 164.839844 324.796875 194.769531 324.796875 C 220.96875 324.796875 245.222656 316.457031 265.023438 302.292969 C 243.910156 302.800781 229.15625 290.789062 229.15625 290.789062 C 196.085938 314.507812 162.066406 289.738281 162.066406 289.738281 C 138.53125 296.308594 124.136719 296.671875 116.351562 295.898438 " fill-opacity="1" fill-rule="nonzero"/><path fill="#439595" d="M 196.367188 208.476562 C 223.957031 191.230469 259.316406 164.917969 284.058594 138.226562 C 287.089844 134.960938 289.484375 133.003906 291.554688 131.539062 C 292.128906 132.308594 292.695312 133.089844 293.253906 133.875 C 278.550781 156.519531 250.085938 195.246094 209.792969 227.082031 C 174.058594 255.316406 137.25 275.5625 105.957031 285.910156 C 97.34375 276.578125 90.175781 265.886719 84.824219 254.195312 C 119.023438 247.367188 158.621094 232.066406 196.367188 208.476562 " fill-opacity="1" fill-rule="nonzero"/><path fill="#ffd472" d="M 279.597656 117.851562 C 266.71875 131.910156 242.742188 155.234375 209.050781 176.152344 C 180.34375 193.976562 150.382812 207.386719 124.273438 214.527344 C 118.765625 216.035156 113.433594 217.261719 108.320312 218.191406 C 100.601562 219.597656 93.386719 220.332031 86.835938 220.332031 C 82.386719 220.332031 78.382812 219.992188 74.878906 219.335938 C 74.238281 214.292969 73.910156 209.152344 73.910156 203.9375 C 73.910156 160.023438 97.332031 121.574219 132.367188 100.414062 C 143.148438 93.898438 155.039062 89.019531 167.679688 86.125 C 167.746094 86.109375 167.808594 86.09375 167.875 86.082031 C 171.164062 85.332031 174.5 84.71875 177.882812 84.25 C 178.355469 84.183594 178.824219 84.121094 179.296875 84.058594 C 182.640625 83.628906 186.027344 83.339844 189.453125 83.195312 C 189.671875 83.183594 189.890625 83.171875 190.109375 83.167969 C 191.65625 83.105469 193.210938 83.078125 194.769531 83.078125 C 200.910156 83.078125 206.945312 83.535156 212.84375 84.421875 C 238.675781 88.292969 261.832031 100.34375 279.597656 117.851562 " fill-opacity="1" fill-rule="nonzero"/><path fill="#0f7f7f" d="M 344.347656 67.613281 C 353.730469 53.230469 358.800781 40.457031 355.777344 38.394531 C 352.753906 36.332031 342.710938 45.710938 332.742188 59.695312 L 294.449219 59.988281 L 288.316406 68.972656 L 318.335938 82.121094 C 314.472656 88.492188 310.46875 95.320312 306.96875 101.609375 L 287.390625 100.582031 L 284.457031 104.882812 L 301.203125 112.394531 C 300.90625 112.984375 270.714844 153.136719 215.894531 187.175781 C 141.742188 233.214844 67.09375 247.144531 49.136719 218.234375 C 36.6875 198.203125 54.738281 162.871094 91.664062 127.734375 C 32.589844 173.5 0.0078125 224.847656 16.582031 251.527344 C 36.34375 283.332031 118.625 268.25 200.058594 217.351562 C 265.914062 176.191406 306.605469 116.402344 306.78125 116.199219 L 313.839844 125.984375 L 316.773438 121.683594 L 314.722656 106.902344 C 319.300781 101.34375 324.199219 95.125 328.722656 89.203125 L 335.414062 109.625 L 341.546875 100.636719 L 344.347656 67.613281 " fill-opacity="1" fill-rule="nonzero"/><g clip-path="url(#5617b2f902)"><path fill="#0c5757" d="M 193.296875 85.769531 C 197.15625 89.09375 201.84375 91.277344 206.84375 92.242188 C 212.140625 93.261719 217.089844 94.867188 222.535156 97.453125 C 222.535156 97.453125 219.234375 91.210938 212.84375 84.421875 C 203.304688 74.28125 186.875 62.921875 164.269531 69.3125 C 164.597656 69.101562 164.929688 68.890625 165.269531 68.679688 C 163.640625 68.03125 161.746094 67.503906 159.609375 67.265625 C 159.609375 67.265625 160.738281 66.925781 162.589844 66.90625 C 166.09375 66.867188 169.539062 66.011719 172.601562 64.316406 L 172.707031 64.261719 C 170.859375 63.414062 169.847656 62.007812 167.238281 61.714844 C 167.238281 61.714844 168.742188 61.265625 171.132812 61.375 C 175.09375 61.554688 179.050781 60.816406 182.625 59.097656 C 182.824219 59 183.027344 58.90625 183.230469 58.808594 C 181.226562 57.777344 178.664062 56.839844 175.601562 56.5 C 175.601562 56.5 177.714844 55.800781 180.667969 55.8125 C 186.53125 55.839844 192.339844 54.632812 197.785156 52.445312 C 198.011719 52.351562 198.226562 52.269531 198.429688 52.1875 C 193.652344 50.757812 187.242188 49.316406 184.144531 48.976562 C 184.144531 48.976562 199.394531 47.386719 210.652344 48.503906 C 210.652344 48.503906 172.652344 22.289062 151.199219 70.097656 C 154.761719 58.160156 155.804688 37.378906 136.84375 24.449219 C 127.945312 18.386719 115.734375 15.3125 115.734375 15.3125 C 119.109375 18.632812 135.722656 38.265625 137.199219 41.265625 C 137.074219 41.171875 132.988281 38.148438 128.191406 36.132812 C 128.265625 36.363281 128.339844 36.589844 128.414062 36.820312 C 129.710938 40.976562 137.566406 50.554688 138.464844 52.386719 C 138.464844 52.386719 135.160156 49.921875 130.980469 47.9375 C 131.960938 53.96875 134.757812 60.429688 135.007812 65.878906 C 115.882812 28.664062 74.097656 40.226562 74.097656 40.226562 C 87.839844 41.691406 105.675781 47.382812 105.675781 47.382812 C 101.890625 47.023438 93.867188 47.152344 87.800781 47.667969 C 88.003906 47.804688 88.21875 47.945312 88.445312 48.097656 C 94.445312 52.089844 101.125 54.984375 108.183594 56.4375 C 111.691406 57.160156 114.019531 58.511719 114.019531 58.511719 C 110.273438 58.152344 106.976562 58.636719 104.324219 59.371094 L 104.640625 59.609375 C 108.652344 62.660156 113.359375 64.632812 118.328125 65.476562 C 121.105469 65.953125 122.722656 66.828125 122.722656 66.828125 C 119.53125 66.527344 117.972656 67.960938 115.550781 68.511719 C 115.660156 68.605469 115.765625 68.695312 115.867188 68.78125 C 116.738281 69.53125 117.65625 70.210938 118.617188 70.820312 C 68.636719 54.664062 55.625 90.847656 55.625 90.847656 C 66.855469 83.03125 83.84375 75.726562 84.171875 75.585938 C 81.074219 77.792969 75.097656 83.140625 70.855469 87.503906 C 70.894531 87.496094 70.933594 87.492188 70.972656 87.488281 C 78.515625 86.484375 85.78125 84.058594 92.511719 80.507812 C 95.402344 78.980469 97.769531 78.53125 97.769531 78.53125 C 94.703125 80.714844 92.527344 83.238281 91.003906 85.527344 C 91.070312 85.527344 91.136719 85.519531 91.203125 85.515625 C 96.316406 85.191406 101.25 83.589844 105.640625 80.949219 C 107.945312 79.554688 109.683594 79.144531 109.789062 79.125 C 107.183594 80.984375 106.941406 83.089844 105.476562 85.085938 L 105.578125 85.085938 C 109.808594 85.0625 113.992188 84.027344 117.691406 81.976562 C 119.695312 80.863281 121.140625 80.527344 121.226562 80.507812 C 119.089844 82.03125 117.386719 83.71875 116.035156 85.378906 C 118.027344 85.480469 119.929688 85.609375 121.738281 85.757812 C 94.175781 92.539062 94.335938 124.5 94.335938 124.5 C 95.960938 121.078125 98.066406 118.121094 100.476562 115.542969 C 101.664062 109.273438 104.1875 104.367188 104.1875 104.367188 C 103.632812 107.511719 104.824219 114.757812 104.84375 114.738281 C 108.808594 111.257812 110.503906 104.945312 112.550781 100.085938 C 113.078125 98.832031 113.453125 98.105469 113.453125 98.105469 C 112.910156 101.171875 112.65625 103.910156 112.59375 106.332031 C 112.625 106.316406 112.65625 106.296875 112.6875 106.28125 C 117.90625 103.367188 122.078125 98.875 124.476562 93.398438 C 124.875 92.480469 124.300781 98.285156 124.273438 100.871094 C 131.351562 94.351562 135.714844 96.1875 135.714844 96.1875 C 134.667969 97.433594 133.539062 98.839844 132.367188 100.414062 C 119.582031 117.546875 100.972656 154.378906 108.320312 218.191406 C 113.433594 217.261719 118.765625 216.035156 124.273438 214.527344 C 118.28125 189.542969 111.140625 138.152344 140.335938 99.988281 C 140.339844 100.269531 141.410156 98.273438 142.34375 97.257812 C 142.519531 97.402344 140.460938 106.050781 140.332031 109.65625 L 140.328125 109.742188 C 142.050781 108.558594 143.828125 108.410156 145.464844 106.261719 C 145.441406 106.351562 145.050781 107.800781 143.820312 109.710938 C 141.480469 113.34375 140.003906 117.464844 139.601562 121.765625 C 139.59375 121.816406 139.589844 121.871094 139.585938 121.921875 C 141.554688 120.699219 143.734375 118.933594 145.652344 116.410156 C 145.628906 116.527344 145.171875 118.460938 143.851562 120.792969 C 140.683594 126.367188 138.457031 132.425781 137.421875 138.75 C 137.417969 138.785156 137.410156 138.816406 137.40625 138.847656 C 141.1875 135.386719 145.847656 130.488281 147.789062 127.933594 C 147.652344 128.226562 141.066406 142.335938 134.199219 151.59375 C 134.199219 151.59375 164.925781 138.035156 154.816406 99.273438 C 156.277344 105.097656 159.683594 110.238281 164.480469 113.847656 C 164.519531 113.875 164.558594 113.902344 164.59375 113.933594 C 165.128906 111.796875 165.332031 106.179688 165.433594 103.519531 C 165.433594 103.519531 171.617188 110.988281 174.117188 121.640625 L 174.191406 121.710938 C 174.6875 119.648438 175.339844 114.132812 175.433594 111.605469 C 175.433594 111.605469 180.003906 120.898438 187.511719 141.015625 C 187.511719 141.015625 196.753906 106.394531 170.15625 87.597656 C 173.683594 89.425781 177.621094 90.367188 181.625 90.339844 L 181.738281 90.335938 C 181.144531 88.957031 177.910156 85.28125 177.417969 84.589844 C 177.417969 84.589844 189.152344 90.34375 193.949219 90.683594 L 194.085938 90.691406 C 193.363281 89.050781 189.996094 83.855469 189.773438 83.539062 C 189.773438 83.539062 192.097656 84.734375 193.296875 85.769531 " fill-opacity="1" fill-rule="nonzero"/></g><g fill="#000000" fill-opacity="1"><g transform="translate(133.145861, 351.76157)"><g><path d="M 7.03125 -18.234375 L 8.8125 -23.453125 L 26.71875 -17.34375 L 27.828125 -16.96875 L 28.359375 -16.796875 L 26.578125 -11.578125 L 24.953125 -12.125 C 24.597656 -12.238281 24.425781 -12.421875 24.4375 -12.671875 C 24.457031 -13.066406 24.601562 -13.828125 24.875 -14.953125 L 19.296875 -16.859375 L 12.9375 1.765625 C 13.03125 1.796875 13.15625 1.863281 13.3125 1.96875 C 14.289062 2.507812 14.8125 2.800781 14.875 2.84375 C 15.050781 2.988281 15.082031 3.226562 14.96875 3.5625 L 14.5 4.953125 L 6.484375 2.21875 L 6.953125 0.828125 C 7.085938 0.453125 7.351562 0.289062 7.75 0.34375 C 7.875 0.375 8.148438 0.410156 8.578125 0.453125 C 9.003906 0.503906 9.378906 0.554688 9.703125 0.609375 L 16.046875 -18 L 10.453125 -19.90625 C 9.929688 -18.757812 9.578125 -18.054688 9.390625 -17.796875 C 9.265625 -17.597656 9.007812 -17.566406 8.625 -17.703125 Z M 7.03125 -18.234375 "/></g></g></g><g fill="#000000" fill-opacity="1"><g transform="translate(158.276533, 360.000924)"><g><path d="M 1.140625 0.15625 L 1.390625 -1.328125 C 1.441406 -1.660156 1.644531 -1.84375 2 -1.875 L 4.078125 -1.96875 L 7.25 -21.65625 C 6.15625 -22.070312 5.515625 -22.316406 5.328125 -22.390625 C 4.992188 -22.523438 4.851562 -22.757812 4.90625 -23.09375 L 5.15625 -24.609375 L 7.640625 -24.203125 L 14.296875 -23.125 C 15.835938 -22.882812 17.175781 -22.507812 18.3125 -22 C 19.394531 -21.519531 20.269531 -20.910156 20.9375 -20.171875 C 21.59375 -19.410156 22.019531 -18.59375 22.21875 -17.71875 C 22.4375 -16.800781 22.457031 -15.8125 22.28125 -14.75 C 22.15625 -13.9375 21.878906 -13.160156 21.453125 -12.421875 C 21.078125 -11.722656 20.570312 -11.09375 19.9375 -10.53125 C 19.300781 -9.976562 18.582031 -9.5625 17.78125 -9.28125 C 16.820312 -8.9375 15.910156 -8.738281 15.046875 -8.6875 C 15.441406 -8.363281 15.757812 -7.96875 16 -7.5 L 20.171875 0.71875 C 21.316406 1.101562 21.941406 1.320312 22.046875 1.375 L 22 1.359375 C 22.34375 1.503906 22.488281 1.742188 22.4375 2.078125 L 22.1875 3.59375 L 21.5625 3.484375 L 19.6875 3.1875 L 18.59375 3 C 17.976562 2.90625 17.582031 2.597656 17.40625 2.078125 L 12.390625 -7.8125 C 12.253906 -8.070312 12.078125 -8.300781 11.859375 -8.5 C 11.679688 -8.664062 11.347656 -8.789062 10.859375 -8.875 L 8.65625 -9.234375 L 7.40625 -1.4375 C 8.46875 -1.019531 9.085938 -0.773438 9.265625 -0.703125 C 9.410156 -0.640625 9.523438 -0.539062 9.609375 -0.40625 C 9.703125 -0.28125 9.738281 -0.140625 9.71875 0.015625 L 9.46875 1.5 L 6.984375 1.09375 L 3.625 0.5625 Z M 9.015625 -11.65625 L 12.1875 -11.140625 L 12.15625 -11.15625 C 13.164062 -10.988281 14.050781 -10.960938 14.8125 -11.078125 C 15.519531 -11.179688 16.195312 -11.425781 16.84375 -11.8125 C 17.425781 -12.1875 17.882812 -12.632812 18.21875 -13.15625 C 18.5625 -13.6875 18.796875 -14.332031 18.921875 -15.09375 C 19.160156 -16.53125 18.859375 -17.71875 18.015625 -18.65625 C 17.179688 -19.539062 15.796875 -20.140625 13.859375 -20.453125 L 10.53125 -21 Z M 9.015625 -11.65625 "/></g></g></g><g fill="#000000" fill-opacity="1"><g transform="translate(186.002759, 364.193593)"><g><path d="M 1.5 -7.34375 C 0.863281 -8.914062 0.523438 -10.632812 0.484375 -12.5 C 0.441406 -14.375 0.703125 -16.109375 1.265625 -17.703125 C 1.828125 -19.296875 2.640625 -20.671875 3.703125 -21.828125 C 4.773438 -22.992188 6.066406 -23.910156 7.578125 -24.578125 C 9.097656 -25.242188 10.765625 -25.597656 12.578125 -25.640625 C 14.390625 -25.679688 16.082031 -25.398438 17.65625 -24.796875 C 19.226562 -24.203125 20.546875 -23.359375 21.609375 -22.265625 C 22.734375 -21.148438 23.609375 -19.816406 24.234375 -18.265625 C 24.859375 -16.753906 25.191406 -15.035156 25.234375 -13.109375 L 25.203125 -13.03125 C 25.242188 -11.132812 24.988281 -9.414062 24.4375 -7.875 C 23.882812 -6.28125 23.070312 -4.90625 22 -3.75 C 20.957031 -2.613281 19.6875 -1.707031 18.1875 -1.03125 C 16.613281 -0.351562 14.9375 0.00390625 13.15625 0.046875 C 11.382812 0.0859375 9.703125 -0.195312 8.109375 -0.8125 C 6.535156 -1.414062 5.207031 -2.257812 4.125 -3.34375 C 3.007812 -4.457031 2.132812 -5.789062 1.5 -7.34375 Z M 3.921875 -12.546875 C 3.953125 -11.015625 4.195312 -9.644531 4.65625 -8.4375 C 5.082031 -7.257812 5.703125 -6.25 6.515625 -5.40625 C 7.328125 -4.5625 8.28125 -3.929688 9.375 -3.515625 C 10.519531 -3.066406 11.75 -2.859375 13.0625 -2.890625 C 14.375 -2.921875 15.59375 -3.179688 16.71875 -3.671875 C 17.789062 -4.148438 18.710938 -4.820312 19.484375 -5.6875 C 20.234375 -6.539062 20.800781 -7.582031 21.1875 -8.8125 C 21.582031 -10.039062 21.765625 -11.421875 21.734375 -12.953125 L 21.703125 -12.953125 C 21.671875 -14.515625 21.425781 -15.898438 20.96875 -17.109375 C 20.476562 -18.398438 19.875 -19.421875 19.15625 -20.171875 C 18.363281 -21.003906 17.414062 -21.628906 16.3125 -22.046875 C 15.21875 -22.472656 13.976562 -22.671875 12.59375 -22.640625 C 11.25 -22.609375 10.039062 -22.359375 8.96875 -21.890625 C 7.882812 -21.410156 6.957031 -20.742188 6.1875 -19.890625 C 5.425781 -19.015625 4.847656 -17.960938 4.453125 -16.734375 C 4.066406 -15.503906 3.890625 -14.109375 3.921875 -12.546875 Z M 3.921875 -12.546875 "/></g></g></g><g fill="#000000" fill-opacity="1"><g transform="translate(216.843725, 362.855525)"><g><path d="M 1.1875 -0.234375 L 0.90625 -1.671875 C 0.832031 -2.035156 0.945312 -2.285156 1.25 -2.421875 L 3.140625 -3.1875 L -0.765625 -22.78125 C -1.898438 -22.769531 -2.582031 -22.78125 -2.8125 -22.8125 C -3.144531 -22.8125 -3.347656 -22.992188 -3.421875 -23.359375 L -3.703125 -24.796875 L 5.546875 -26.640625 C 7.066406 -26.941406 8.445312 -27.050781 9.6875 -26.96875 L 9.6875 -27 C 13.28125 -26.5625 15.441406 -24.515625 16.171875 -20.859375 C 16.640625 -18.492188 16.234375 -16.488281 14.953125 -14.84375 C 13.578125 -13.03125 11.460938 -11.835938 8.609375 -11.265625 L 5.109375 -10.5625 L 6.4375 -3.890625 C 6.71875 -3.847656 7.40625 -3.84375 8.5 -3.875 C 8.84375 -3.863281 9.050781 -3.675781 9.125 -3.3125 L 9.40625 -1.875 Z M 4.578125 -13.25 L 8.078125 -13.953125 C 9.921875 -14.316406 11.253906 -15.0625 12.078125 -16.1875 C 12.929688 -17.320312 13.203125 -18.671875 12.890625 -20.234375 L 12.859375 -20.265625 C 12.554688 -21.796875 11.828125 -22.914062 10.671875 -23.625 C 9.566406 -24.300781 8.03125 -24.441406 6.0625 -24.046875 L 2.5625 -23.34375 Z M 4.578125 -13.25 "/></g></g></g><g fill="#000000" fill-opacity="1"><g transform="translate(240.766897, 357.545435)"><g><path d="M 1.140625 -0.375 L 0.671875 -1.796875 C 0.554688 -2.148438 0.640625 -2.410156 0.921875 -2.578125 L 2.71875 -3.59375 L -3.53125 -22.578125 C -4.65625 -22.410156 -5.359375 -22.316406 -5.640625 -22.296875 C -5.921875 -22.273438 -6.113281 -22.429688 -6.21875 -22.765625 L -6.6875 -24.171875 L 1.3125 -26.796875 L 1.78125 -25.390625 C 1.894531 -25.035156 1.796875 -24.78125 1.484375 -24.625 L -0.328125 -23.640625 L 5.921875 -4.65625 C 6.972656 -4.789062 7.691406 -4.875 8.078125 -4.90625 C 8.359375 -4.914062 8.554688 -4.753906 8.671875 -4.421875 L 9.140625 -3 Z M 1.140625 -0.375 "/></g></g></g><g fill="#000000" fill-opacity="1"><g transform="translate(254.66461, 353.097206)"><g><path d="M -4.703125 -11.640625 C -6.316406 -15.035156 -6.578125 -18.316406 -5.484375 -21.484375 C -4.429688 -24.640625 -2.140625 -27.054688 1.390625 -28.734375 L 1.296875 -28.71875 C 3.097656 -29.570312 5.695312 -30.144531 9.09375 -30.4375 L 9.921875 -28.6875 L 11.609375 -25.125 L 10.09375 -24.40625 C 9.6875 -24.21875 9.363281 -24.300781 9.125 -24.65625 C 9.070312 -24.707031 8.8125 -25.15625 8.34375 -26 C 8.195312 -26.226562 8.0625 -26.445312 7.9375 -26.65625 C 7.820312 -26.863281 7.726562 -27.023438 7.65625 -27.140625 C 7.582031 -27.265625 7.535156 -27.34375 7.515625 -27.375 C 5.503906 -27.09375 3.785156 -26.613281 2.359375 -25.9375 C -0.0546875 -24.789062 -1.640625 -23.0625 -2.390625 -20.75 C -3.140625 -18.363281 -2.875 -15.820312 -1.59375 -13.125 C -0.28125 -10.382812 1.519531 -8.550781 3.8125 -7.625 C 5.988281 -6.75 8.226562 -6.859375 10.53125 -7.953125 C 11.820312 -8.578125 12.753906 -9.175781 13.328125 -9.75 C 14.253906 -10.71875 14.921875 -11.710938 15.328125 -12.734375 C 15.453125 -12.984375 15.585938 -13.140625 15.734375 -13.203125 C 15.941406 -13.304688 16.132812 -13.328125 16.3125 -13.265625 L 18.15625 -12.5 C 17.28125 -9.300781 15.101562 -6.875 11.625 -5.21875 C 8.375 -3.664062 5.25 -3.503906 2.25 -4.734375 C -0.769531 -5.953125 -3.085938 -8.253906 -4.703125 -11.640625 Z M -4.703125 -11.640625 "/></g></g></g><g fill="#000000" fill-opacity="1"><g transform="translate(277.834613, 341.361625)"><g/></g></g><g fill="#000000" fill-opacity="1"><g transform="translate(286.841365, 335.592783)"><g/></g></g><g fill="#000000" fill-opacity="1"><g transform="translate(296.200618, 329.125749)"><g><path d="M 0.828125 -0.796875 L -0.203125 -1.90625 C -0.429688 -2.15625 -0.441406 -2.429688 -0.234375 -2.734375 L 0.953125 -4.421875 L -12.578125 -19.078125 C -13.578125 -18.460938 -14.164062 -18.101562 -14.34375 -18 C -14.664062 -17.820312 -14.9375 -17.851562 -15.15625 -18.09375 L -16.203125 -19.234375 L -14.34375 -20.953125 L -9.390625 -25.53125 C -8.253906 -26.582031 -7.132812 -27.398438 -6.03125 -27.984375 C -4.988281 -28.535156 -3.96875 -28.84375 -2.96875 -28.90625 C -1.96875 -28.957031 -1.0625 -28.789062 -0.25 -28.40625 C 0.601562 -28.007812 1.394531 -27.421875 2.125 -26.640625 C 2.675781 -26.035156 3.125 -25.335938 3.46875 -24.546875 C 3.757812 -23.816406 3.929688 -23.03125 3.984375 -22.1875 C 4.035156 -21.351562 3.925781 -20.53125 3.65625 -19.71875 C 3.34375 -18.75 2.9375 -17.910156 2.4375 -17.203125 C 2.9375 -17.328125 3.445312 -17.332031 3.96875 -17.21875 L 13 -15.421875 C 14.007812 -16.097656 14.566406 -16.460938 14.671875 -16.515625 L 14.640625 -16.484375 C 14.953125 -16.660156 15.222656 -16.625 15.453125 -16.375 L 16.5 -15.25 L 16.046875 -14.828125 L 14.640625 -13.53125 L 13.828125 -12.78125 C 13.378906 -12.363281 12.882812 -12.242188 12.34375 -12.421875 L 1.484375 -14.5625 C 1.203125 -14.625 0.914062 -14.628906 0.625 -14.578125 C 0.375 -14.535156 0.0703125 -14.351562 -0.28125 -14.03125 L -1.921875 -12.5 L 3.4375 -6.703125 C 4.414062 -7.285156 4.988281 -7.625 5.15625 -7.71875 C 5.289062 -7.800781 5.4375 -7.835938 5.59375 -7.828125 C 5.757812 -7.816406 5.894531 -7.753906 6 -7.640625 L 7.03125 -6.53125 L 5.1875 -4.8125 L 2.6875 -2.515625 Z M -3.625 -14.296875 L -1.265625 -16.46875 L -1.296875 -16.453125 C -0.535156 -17.148438 0.03125 -17.832031 0.40625 -18.5 C 0.757812 -19.113281 0.984375 -19.796875 1.078125 -20.546875 C 1.140625 -21.234375 1.078125 -21.867188 0.890625 -22.453125 C 0.671875 -23.054688 0.296875 -23.640625 -0.234375 -24.203125 C -1.222656 -25.273438 -2.335938 -25.765625 -3.578125 -25.671875 C -4.785156 -25.566406 -6.109375 -24.851562 -7.546875 -23.53125 L -10.03125 -21.234375 Z M -3.625 -14.296875 "/></g></g></g><g fill="#000000" fill-opacity="1"><g transform="translate(315.819911, 310.076604)"><g><path d="M 0.765625 -0.921875 L -0.390625 -1.875 C -0.671875 -2.113281 -0.742188 -2.378906 -0.609375 -2.671875 L 0.40625 -4.484375 L -14.953125 -17.265625 C -15.816406 -16.535156 -16.363281 -16.085938 -16.59375 -15.921875 C -16.820312 -15.753906 -17.078125 -15.785156 -17.359375 -16.015625 L -18.484375 -16.953125 L -13.09375 -23.421875 L -11.96875 -22.484375 C -11.675781 -22.242188 -11.617188 -21.96875 -11.796875 -21.65625 L -12.796875 -19.859375 L 2.5625 -7.078125 C 3.382812 -7.753906 3.953125 -8.210938 4.265625 -8.453125 C 4.484375 -8.609375 4.726562 -8.570312 5 -8.34375 L 6.15625 -7.390625 Z M 0.765625 -0.921875 "/></g></g></g><g fill="#000000" fill-opacity="1"><g transform="translate(325.45843, 298.891064)"><g><path d="M 0.640625 -1.015625 L -0.609375 -1.796875 C -0.921875 -1.992188 -1.015625 -2.265625 -0.890625 -2.609375 L -0.1875 -4.46875 L -17.171875 -15 C -17.910156 -14.1875 -18.367188 -13.710938 -18.546875 -13.578125 C -18.796875 -13.296875 -19.078125 -13.253906 -19.390625 -13.453125 L -20.640625 -14.21875 L -14.546875 -24.0625 C -12.566406 -27.238281 -10.035156 -29.164062 -6.953125 -29.84375 C -3.773438 -30.5625 -0.585938 -29.929688 2.609375 -27.953125 C 4.203125 -26.953125 5.492188 -25.789062 6.484375 -24.46875 C 7.453125 -23.1875 8.128906 -21.78125 8.515625 -20.25 C 9.285156 -17.132812 8.691406 -14.003906 6.734375 -10.859375 Z M 1.4375 -7.5 L 4.40625 -12.296875 C 5.84375 -14.617188 6.253906 -16.90625 5.640625 -19.15625 C 5.003906 -21.425781 3.378906 -23.375 0.765625 -25 C -0.578125 -25.832031 -1.859375 -26.375 -3.078125 -26.625 C -4.398438 -26.90625 -5.578125 -26.953125 -6.609375 -26.765625 C -8.910156 -26.347656 -10.789062 -24.972656 -12.25 -22.640625 L -15.21875 -17.84375 Z M 1.4375 -7.5 "/></g></g></g><g fill="#000000" fill-opacity="1"><g transform="translate(340.987749, 272.693384)"><g><path d="M 0.453125 -1.109375 L -0.90625 -1.65625 C -1.257812 -1.800781 -1.40625 -2.039062 -1.34375 -2.375 L -0.9375 -4.375 L -19.46875 -11.859375 C -20.09375 -10.890625 -20.476562 -10.320312 -20.625 -10.15625 C -20.800781 -9.863281 -21.0625 -9.785156 -21.40625 -9.921875 L -22.78125 -10.46875 L -16.0625 -27.140625 L -10.453125 -24.890625 L -11.078125 -23.34375 C -11.234375 -22.957031 -11.515625 -22.800781 -11.921875 -22.875 C -11.941406 -22.882812 -12.046875 -22.921875 -12.234375 -22.984375 C -12.429688 -23.046875 -12.742188 -23.132812 -13.171875 -23.25 C -13.597656 -23.375 -14.035156 -23.515625 -14.484375 -23.671875 L -18 -14.96875 L -10.28125 -11.84375 L -6.828125 -20.40625 L -4.359375 -19.421875 L -7.8125 -10.859375 L 0.140625 -7.640625 L 3.65625 -16.34375 C 2.269531 -17.050781 1.515625 -17.429688 1.390625 -17.484375 C 1.054688 -17.671875 0.976562 -17.976562 1.15625 -18.40625 L 1.78125 -19.953125 L 7.171875 -17.78125 Z M 0.453125 -1.109375 "/></g></g></g><g fill="#000000" fill-opacity="1"><g transform="translate(349.839171, 249.672309)"><g><path d="M -0.71875 -1.453125 L -6.84375 -2.9375 L -6.453125 -4.59375 C -6.359375 -4.976562 -6.109375 -5.15625 -5.703125 -5.125 C -5.492188 -5.125 -4.925781 -5.046875 -4 -4.890625 L -2.484375 -4.625 C -1.398438 -6.238281 -0.738281 -7.546875 -0.5 -8.546875 C -0.257812 -9.503906 -0.175781 -10.375 -0.25 -11.15625 C -0.300781 -11.863281 -0.472656 -12.457031 -0.765625 -12.9375 C -1.359375 -13.988281 -2.332031 -14.679688 -3.6875 -15.015625 C -4.988281 -15.335938 -6.132812 -14.96875 -7.125 -13.90625 C -7.625 -13.394531 -8.046875 -12.859375 -8.390625 -12.296875 C -9.722656 -10.078125 -10.546875 -8.757812 -10.859375 -8.34375 C -11.285156 -7.769531 -11.847656 -7.242188 -12.546875 -6.765625 C -13.910156 -5.828125 -15.566406 -5.597656 -17.515625 -6.078125 C -19.316406 -6.515625 -20.710938 -7.535156 -21.703125 -9.140625 C -22.722656 -10.859375 -22.957031 -12.835938 -22.40625 -15.078125 C -21.84375 -17.410156 -20.832031 -19.578125 -19.375 -21.578125 L -13.78125 -20.203125 L -14.171875 -18.578125 C -14.273438 -18.160156 -14.523438 -17.972656 -14.921875 -18.015625 C -14.929688 -18.023438 -15.046875 -18.046875 -15.265625 -18.078125 C -15.492188 -18.109375 -15.859375 -18.164062 -16.359375 -18.25 C -16.867188 -18.332031 -17.414062 -18.414062 -18 -18.5 C -18.8125 -17.0625 -19.359375 -15.785156 -19.640625 -14.671875 C -19.992188 -13.191406 -19.898438 -11.957031 -19.359375 -10.96875 C -18.859375 -10.039062 -18.050781 -9.441406 -16.9375 -9.171875 C -15.726562 -8.878906 -14.632812 -9.257812 -13.65625 -10.3125 C -13.175781 -10.800781 -12.734375 -11.367188 -12.328125 -12.015625 C -11.203125 -13.828125 -10.351562 -15.128906 -9.78125 -15.921875 L -9.796875 -15.859375 C -8.085938 -18.035156 -5.957031 -18.816406 -3.40625 -18.203125 C -1.164062 -17.648438 0.484375 -16.5 1.546875 -14.75 C 2.648438 -12.914062 2.894531 -10.726562 2.28125 -8.1875 C 2.019531 -7.125 1.644531 -6.03125 1.15625 -4.90625 C 0.8125 -4.125 0.375 -3.269531 -0.15625 -2.34375 Z M -0.71875 -1.453125 "/></g></g></g><g fill="#000000" fill-opacity="1"><g transform="translate(354.452156, 228.893007)"><g/></g></g></svg>